<?xml version="1.0" standalone="no"?>
<!DOCTYPE svg PUBLIC "-//W3C//DTD SVG 20010904//EN"
 "http://www.w3.org/TR/2001/REC-SVG-20010904/DTD/svg10.dtd">
<svg version="1.0" xmlns="http://www.w3.org/2000/svg"
 width="1080.000000pt" height="1080.000000pt" viewBox="0 0 1080.000000 1080.000000"
 preserveAspectRatio="xMidYMid meet">
<metadata>
Created by potrace 1.14, written by Peter Selinger 2001-2017
</metadata>
<g transform="translate(0.000000,1080.000000) scale(0.100000,-0.100000)"
fill="#000000" stroke="none">
<path d="M6005 9014 c-573 -88 -1246 -601 -1664 -1269 -100 -159 -233 -437
-280 -581 -68 -214 -84 -313 -84 -509 0 -150 3 -181 25 -266 31 -114 77 -231
123 -315 65 -115 301 -460 478 -696 220 -294 397 -556 448 -662 103 -215 116
-414 38 -620 -51 -138 -243 -378 -459 -574 -353 -320 -470 -442 -584 -607
-154 -221 -206 -356 -206 -535 0 -181 44 -296 152 -404 200 -198 530 -260 851
-160 98 31 290 121 419 197 287 169 665 544 949 942 243 342 445 787 516 1141
21 107 23 375 4 499 -37 238 -125 456 -280 691 -100 153 -144 206 -390 466
-284 301 -411 477 -464 643 -18 58 -22 93 -22 205 0 192 33 303 134 457 149
225 290 340 888 725 151 97 283 245 334 376 20 50 23 75 23 192 -1 119 -4 145
-27 217 -63 190 -219 339 -437 416 -136 48 -305 59 -485 31z"/>
</g>
</svg>
